<?xml version="1.0" encoding="UTF-8" standalone="no"?>
<!-- Created with Inkscape (http://www.inkscape.org/) -->

<svg
   xmlns:dc="http://purl.org/dc/elements/1.1/"
   xmlns:cc="http://creativecommons.org/ns#"
   xmlns:rdf="http://www.w3.org/1999/02/22-rdf-syntax-ns#"
   xmlns:svg="http://www.w3.org/2000/svg"
   xmlns="http://www.w3.org/2000/svg"
   xmlns:sodipodi="http://sodipodi.sourceforge.net/DTD/sodipodi-0.dtd"
   xmlns:inkscape="http://www.inkscape.org/namespaces/inkscape"
   width="54"
   height="54"
   viewBox="0 0 54.000002 53.999999"
   id="svg2"
   version="1.1"
   inkscape:version="0.91 r13725"
   sodipodi:docname="logo.svg">
  <sodipodi:namedview
     id="base"
     pagecolor="#e8f5e9"
     bordercolor="#666666"
     borderopacity="1.0"
     inkscape:pageopacity="0"
     inkscape:pageshadow="2"
     inkscape:zoom="6.1597081"
     inkscape:cx="27.036775"
     inkscape:cy="10.945036"
     inkscape:document-units="px"
     inkscape:current-layer="layer1"
     showgrid="false"
     inkscape:window-width="1536"
     inkscape:window-height="801"
     inkscape:window-x="-8"
     inkscape:window-y="-8"
     inkscape:window-maximized="1"
     fit-margin-top="0"
     fit-margin-left="0"
     fit-margin-right="0"
     fit-margin-bottom="0"
     units="px" />
  <defs
     id="defs4" />
  <metadata
     id="metadata7">
    <rdf:RDF>
      <cc:Work
         rdf:about="">
        <dc:format>image/svg+xml</dc:format>
        <dc:type
           rdf:resource="http://purl.org/dc/dcmitype/StillImage" />
        <dc:title />
      </cc:Work>
    </rdf:RDF>
  </metadata>
  <g
     inkscape:label="Vrstva 1"
     inkscape:groupmode="layer"
     id="layer1"
     transform="translate(-151.79356,-592.73905)">
    <rect
       ry="3.1496866"
       rx="3.8068278"
       y="592.73907"
       x="151.79356"
       height="54.000004"
       width="54.000004"
       id="rect4282"
       style="fill:#5193c9;fill-opacity:1;fill-rule:nonzero;stroke:none;stroke-width:1;stroke-linecap:butt;stroke-linejoin:miter;stroke-miterlimit:4;stroke-dasharray:none;stroke-opacity:1" />
    <path
       id="path4192"
       d="m 178.79356,638.64125 c -8.9461,0 -16.20189,-2.42079 -16.20189,-5.40063 0,-1.62969 0,-3.41231 0,-5.40063 0,-0.4694 0.23467,-0.91507 0.57221,-1.35015 1.80639,2.32585 8.08778,4.05046 15.62968,4.05046 7.54189,0 13.82329,-1.72461 15.62967,-4.05046 0.33754,0.43508 0.57222,0.88075 0.57222,1.35015 0,1.56374 0,3.22245 0,5.40063 0,2.97984 -7.2571,5.40063 -16.20189,5.40063 z m 0,-10.80126 c -8.9461,0 -16.20189,-2.42079 -16.20189,-5.40063 0,-1.63099 0,-3.41101 0,-5.40063 0,-0.2861 0.10809,-0.56433 0.25315,-0.83988 l 0,0 c 0.0818,-0.17274 0.18987,-0.34282 0.31906,-0.51028 1.80639,2.32455 8.08778,4.05048 15.62968,4.05048 7.54189,0 13.82329,-1.72593 15.62967,-4.05048 0.1292,0.16746 0.23733,0.33754 0.31906,0.51028 l 0,0 c 0.14506,0.27555 0.25316,0.55378 0.25316,0.83988 0,1.56374 0,3.22113 0,5.40063 0,2.97984 -7.2571,5.40063 -16.20189,5.40063 z m 0,-10.80126 c -8.9461,0 -16.20189,-2.41948 -16.20189,-5.40063 0,-0.85309 0,-1.75495 0,-2.70032 0,-0.85836 0,-1.74967 0,-2.70031 0,-2.98115 7.25579,-5.40063 16.20189,-5.40063 8.94479,0 16.20189,2.41948 16.20189,5.40063 0,0.84254 0,1.73647 0,2.70031 0,0.82673 0,1.69825 0,2.70032 0,2.98115 -7.2571,5.40063 -16.20189,5.40063 z m 0,-13.50158 c -5.96495,0 -10.80126,1.20645 -10.80126,2.70032 0,1.49387 4.83631,2.70031 10.80126,2.70031 5.96495,0 10.80126,-1.20644 10.80126,-2.70031 0,-1.49387 -4.83631,-2.70032 -10.80126,-2.70032 z"
       inkscape:connector-curvature="0"
       style="fill:#ffffff" />
  </g>
</svg>
